<svg xmlns="http://www.w3.org/2000/svg" viewBox="0 0 37.39 37.69"><defs><style>.cls-1{fill:none;stroke:#a7bfa5;stroke-miterlimit:10;stroke-width:0.25px;}</style></defs><g id="Layer_2" data-name="Layer 2"><g id="Layer_1-2" data-name="Layer 1"><polygon class="cls-1" points="33.8 6.74 27.8 0.14 16.4 2.39 22.55 9.14 33.8 6.74"/><polygon class="cls-1" points="30.87 17.99 33.8 6.74 22.55 9.14 20.3 19.8 30.87 17.99"/><polygon class="cls-1" points="16.4 2.39 13.85 13.27 20.3 19.8 22.55 9.14 16.4 2.39"/><polygon class="cls-1" points="20.09 19.87 14.09 13.27 2.69 15.52 8.84 22.27 20.09 19.87"/><polygon class="cls-1" points="17.16 31.12 20.09 19.87 8.84 22.27 6.59 32.94 17.16 31.12"/><polygon class="cls-1" points="2.69 15.52 0.14 26.41 6.59 32.94 8.84 22.27 2.69 15.52"/><polygon class="cls-1" points="37.15 24.37 31.15 17.77 19.75 20.02 25.9 26.77 37.15 24.37"/><polygon class="cls-1" points="34.22 35.62 37.15 24.37 25.9 26.77 23.65 37.44 34.22 35.62"/><polygon class="cls-1" points="19.75 20.02 17.2 30.91 23.65 37.44 25.9 26.77 19.75 20.02"/></g></g></svg>