<svg xmlns="http://www.w3.org/2000/svg" viewBox="0 0 227.8 70.9"><defs><style>.cls-1,.cls-2{fill:none;stroke-miterlimit:10;stroke-width:0.25px;}.cls-1{stroke:#a7bfa5;}.cls-2{stroke:#70986d;}</style></defs><g id="Layer_2" data-name="Layer 2"><g id="Layer_1-2" data-name="Layer 1"><path class="cls-1" d="M133.05,70l-4.71-2.85a3.05,3.05,0,0,0-3.19,0l-3,1.79a3.09,3.09,0,0,1-3.4-.13l-2-1.46a3.09,3.09,0,0,0-3.34-.18L110.21,69a3.09,3.09,0,0,1-3.32-.15l-3.74-2.69"/><polyline class="cls-2" points="11.99 70.75 9.48 69.22 6.97 70.75 4.87 69.22 2.22 70.75 0.07 69.22"/><path class="cls-2" d="M227.76.86,225.87.23a2.05,2.05,0,0,0-1.25,0l-1.2.4a2.16,2.16,0,0,1-1.33,0L221.26.3A2.1,2.1,0,0,0,220,.3l-1.3.41a2.06,2.06,0,0,1-1.3,0L215.83.12"/></g></g></svg>