<svg xmlns="http://www.w3.org/2000/svg" viewBox="0 0 85.6 73.4"><defs><style>.cls-1{fill:#f8f8f7;}</style></defs><g id="Layer_2" data-name="Layer 2"><g id="Layer_1-2" data-name="Layer 1"><path class="cls-1" d="M0,47.4l4.3-3c2.1,3.8,4.8,5.3,8.2,5.3,5,0,7.5-2.9,7.5-10V6.8h6V40.1C26,48.4,22.2,55,13,55A13.92,13.92,0,0,1,0,47.4Z"/><path class="cls-1" d="M38.7,6.8H46l9,25.3c1.1,3.2,2.2,6.6,3.4,9.8h.3c1.1-3.3,2.1-6.6,3.3-9.8L71,6.8h7.2V54.1H72.5v-26c0-4.1.5-9.8.8-14H73L69.2,24.9,60.3,49.4h-4l-9-24.5L43.6,14.1h-.3c.3,4.2.8,9.9.8,14v26H38.6V6.8Z"/><path class="cls-1" d="M5.6,57.2H8l3,8.4c.4,1.1.7,2.2,1.1,3.3h.1c.4-1.1.7-2.2,1.1-3.3l3-8.4h2.5V73H16.9V64.3c0-1.4.2-3.3.3-4.7H17l-1.3,3.6-3,8.2H11.4l-3-8.2L7.2,59.6H7.1c.1,1.4.3,3.3.3,4.7V73H5.6Z"/><path class="cls-1" d="M22.1,65.1c0-5,2.8-8.1,6.7-8.1s6.7,3.1,6.7,8.1-2.8,8.3-6.7,8.3S22.1,70.1,22.1,65.1Zm11.4,0c0-3.9-1.8-6.4-4.7-6.4s-4.7,2.4-4.7,6.4,1.9,6.5,4.7,6.5S33.5,69,33.5,65.1Z"/><path class="cls-1" d="M37.8,70.9,39,69.5a6.43,6.43,0,0,0,4.3,2c2.1,0,3.3-1,3.3-2.6s-1.1-2.1-2.6-2.8l-2.3-1c-1.5-.6-3.2-1.7-3.2-4.1s2.1-4.2,5-4.2a6.6,6.6,0,0,1,4.6,1.9L47,60a4.75,4.75,0,0,0-3.6-1.5c-1.8,0-2.9.9-2.9,2.3s1.4,2.1,2.6,2.6l2.2,1c1.8.7,3.3,1.8,3.3,4.1S46.5,73,43.2,73A6,6,0,0,1,37.8,70.9Z"/><path class="cls-1" d="M55,57.2h2.3L62.6,73H60.5l-2.7-8.8c-.6-1.8-1.1-3.5-1.6-5.3H56c-.5,1.8-1,3.6-1.5,5.3L51.7,73h-2Zm-2.5,9.4h7.3v1.6H52.5Z"/><path class="cls-1" d="M64.6,57.2h4.7c3.2,0,5.4,1.1,5.4,3.9a3.45,3.45,0,0,1-2.3,3.4v.1a3.63,3.63,0,0,1,3.2,3.8c0,3.1-2.4,4.6-6,4.6h-5Zm4.3,6.7c2.7,0,3.8-1,3.8-2.6,0-1.8-1.3-2.5-3.7-2.5H66.6V64Zm.4,7.5c2.7,0,4.3-1,4.3-3.1,0-1.9-1.5-2.8-4.3-2.8H66.6v5.9Z"/><polygon class="cls-1" points="85.6 69 77.2 69 77.2 67 83.6 67 83.6 2 9.6 2 9.6 46.8 7.6 46.8 7.6 0 85.6 0 85.6 69"/></g></g></svg>